<?xml version="1.0" encoding="UTF-8" standalone="no"?>
<!-- Generator: Adobe Illustrator 16.0.0, SVG Export Plug-In . SVG Version: 6.00 Build 0)  -->

<svg
   version="1.1"
   id="Ebene_1"
   x="0px"
   y="0px"
   width="480"
   height="380"
   viewBox="0 0 480 380"
   enable-background="new 0 0 651.969 651.969"
   xml:space="preserve"
   sodipodi:docname="logo.svg"
   inkscape:version="1.4.2 (ebf0e940d0, 2025-05-08)"
   xmlns:inkscape="http://www.inkscape.org/namespaces/inkscape"
   xmlns:sodipodi="http://sodipodi.sourceforge.net/DTD/sodipodi-0.dtd"
   xmlns="http://www.w3.org/2000/svg"
   xmlns:svg="http://www.w3.org/2000/svg"><defs
   id="defs5" /><sodipodi:namedview
   id="namedview5"
   pagecolor="#ffffff"
   bordercolor="#000000"
   borderopacity="0.25"
   inkscape:showpageshadow="2"
   inkscape:pageopacity="0.0"
   inkscape:pagecheckerboard="0"
   inkscape:deskcolor="#d1d1d1"
   inkscape:zoom="1.3"
   inkscape:cx="249.23077"
   inkscape:cy="250"
   inkscape:window-width="1920"
   inkscape:window-height="1020"
   inkscape:window-x="0"
   inkscape:window-y="0"
   inkscape:window-maximized="1"
   inkscape:current-layer="Ebene_1" />




<style
   id="style1">
  path { fill: var(--logo-color, hsl(222.2, 47.4%, 11.2%)); }
</style>
<g
   id="g5"
   transform="translate(-84.867567,-12.798165)"><path
     d="m 398.183,206.757 c 0,36.29 0,71.525 0,106.841 15.214,-2.959 15.206,-2.959 15.215,-17.538 0.021,-32.832 0.103,-65.664 10e-4,-98.496 -0.011,-3.639 1.179,-6.146 3.629,-8.768 9.071,-9.708 17.802,-19.734 26.835,-29.479 1.156,-1.248 3.323,-2.13 5.05,-2.179 8.16,-0.228 16.334,0.042 24.495,-0.166 4.64,-0.118 6.017,1.911 6.004,6.31 -0.106,35.832 -0.06,71.665 -0.06,107.497 0,1.83 0,3.659 0,6.712 16.881,-10.774 30.474,-23.61 40.661,-39.987 10.413,-16.739 13.807,-34.746 9.287,-54.152 0.47,-0.121 0.938,-0.241 1.407,-0.361 2.539,6.991 5.826,13.812 7.471,21.007 4.14,18.11 0.978,35.447 -7.453,51.866 -13.376,26.05 -34.959,43.74 -59.656,58.173 -30.046,17.559 -62.404,28.983 -96.586,34.961 -17.551,3.069 -35.283,5.509 -53.038,6.877 -16.894,1.302 -33.97,1.79 -50.883,0.953 -35.456,-1.753 -70.113,-8.213 -103.102,-21.868 -17.639,-7.301 -33.734,-17.088 -46.374,-31.738 -14.479,-16.779 -15.069,-39.083 -1.897,-55.158 -5.662,20.339 3.756,34.212 18.511,45.948 18.122,14.415 39.414,21.692 61.489,26.873 13.412,3.147 27.09,5.163 41.346,7.817 0,-10.545 -0.01,-19.996 0.003,-29.448 0.011,-8.181 0.201,-7.687 8.119,-10.557 17.651,-6.399 35.113,-13.327 52.633,-20.088 2.267,-0.875 4.421,-2.042 7.188,-3.336 0,21.465 0,42.241 0,63.902 5.276,-0.431 10.172,-0.575 14.936,-1.443 0.902,-0.165 1.815,-3.193 1.824,-4.905 0.102,-20.332 0.125,-40.666 -0.078,-60.997 -0.037,-3.716 0.928,-5.791 4.352,-7.684 23.242,-12.844 44.854,-28.099 65.281,-45.047 0.743,-0.617 1.594,-1.108 3.39,-2.342 z"
     id="path1" /><path
     d="m 433.012,94.358 c -8.817,-4.128 -17.145,-8.026 -26.361,-12.34 28.031,-11.284 55.444,-22.319 83.626,-33.664 -0.666,29.926 -1.312,58.932 -1.974,88.715 -8.76,-8.062 -16.96,-15.609 -25.14,-23.137 -6.865,10.119 -12.973,20.18 -20.123,29.436 -14.438,18.688 -30.587,35.774 -48.514,51.289 -26.937,23.314 -56.077,43.266 -87.633,59.676 -27.595,14.351 -56.382,25.684 -86.82,32.473 -20.409,4.552 -41.147,4.731 -61.915,4.17 -1.038,-0.028 -2.062,-0.563 -4.436,-1.252 38.754,-6.704 73.227,-21.111 106.441,-38.764 28.828,-15.321 55.979,-33.256 81.474,-53.693 23.811,-19.088 45.982,-39.848 64.895,-63.864 7.365,-9.352 14.053,-19.245 20.878,-29.011 2.056,-2.941 3.534,-6.286 5.602,-10.034 z"
     id="path2" /><path
     d="m 240.603,251.22 c -0.102,-1.778 -0.253,-3.215 -0.254,-4.65 -0.015,-24.959 -0.018,-49.917 -0.006,-74.876 0.003,-6.012 0.63,-6.651 6.547,-6.656 18.47,-0.015 36.94,0.137 55.407,-0.103 4.764,-0.062 6.503,1.355 6.395,6.199 -0.276,12.305 -0.077,24.62 -0.273,36.927 -0.024,1.488 -0.901,3.619 -2.067,4.333 -20.972,12.834 -42.046,25.501 -63.119,38.169 -0.64,0.385 -1.507,0.389 -2.63,0.657 z"
     id="path3" /><path
     d="m 325.229,197.83 c 0,-20.519 0.019,-40.604 -0.01,-60.688 -0.01,-7.146 0.034,-14.3 -0.271,-21.437 -0.173,-4.068 1.339,-5.717 5.385,-5.704 21.306,0.069 42.611,0.048 63.917,0.011 3.593,-0.006 4.15,1.68 4.853,5.119 2.734,13.381 -7.138,20.355 -14.11,28.391 -17.33,19.973 -36.838,37.716 -58.127,53.453 -0.341,0.251 -0.758,0.4 -1.637,0.855 z"
     id="path4" /><path
     d="m 158.409,281.228 c 0,-4.205 -0.004,-7.507 0.001,-10.808 0.02,-15.485 0.001,-30.972 0.082,-46.457 0.031,-6.088 0.98,-6.936 6.861,-6.935 17.983,0.003 35.968,0.096 53.95,-0.063 4.561,-0.04 6.192,1.689 6.11,6.179 -0.194,10.653 -0.177,21.314 0.011,31.969 0.052,2.931 -0.798,4.729 -3.54,5.657 -19.456,6.588 -38.903,13.199 -58.374,19.742 -1.351,0.455 -2.866,0.418 -5.101,0.716 z"
     id="path5" /></g>
</svg>
