<svg viewBox="0 0 800 800" xmlns="http://www.w3.org/2000/svg">
  <g transform="translate(4.715,-1.761)" stroke="#0f172a" stroke-width="5" stroke-linecap="square" fill="none" opacity="0.07">
    <g transform="translate(-6.168,0.251)">
      <path d="M 0,165.685 217.157,75.736 400,258.579 359.175,300 H 40.825 L 0,400"/>
      <path d="M 165.685,0 75.736,217.157 258.579,400 300,359.175 V 40.825 L 400,0"/>
    </g>
    <g transform="rotate(90,398.205,398.456)">
      <path d="M 0,165.685 217.157,75.736 400,258.579 359.175,300 H 40.825 L 0,400"/>
      <path d="M 165.685,0 75.736,217.157 258.579,400 300,359.175 V 40.825 L 400,0"/>
    </g>
    <g transform="rotate(180,398.364,401.631)">
      <path d="M 0,165.685 217.157,75.736 400,258.579 359.175,300 H 40.825 L 0,400"/>
      <path d="M 165.685,0 75.736,217.157 258.579,400 300,359.175 V 40.825 L 400,0"/>
    </g>
    <g transform="rotate(-90,398.547,404.715)">
      <path d="M 0,165.685 217.157,75.736 400,258.579 359.175,300 H 40.825 L 0,400"/>
      <path d="M 165.685,0 75.736,217.157 258.579,400 300,359.175 V 40.825 L 400,0"/>
    </g>
  </g>
</svg>
